<svg xmlns="http://www.w3.org/2000/svg" width="30" height="30" viewBox="0 0 30 30">
  <g id="Group_5694" data-name="Group 5694" transform="translate(-322 -503)">
    <circle id="Ellipse_543" data-name="Ellipse 543" cx="15" cy="15" r="15" transform="translate(322 503)" fill="#729895"/>
    <g id="noun-phone-5628717" transform="translate(223.669 475.192)">
      <path id="Path_5444" data-name="Path 5444" d="M117.982,97.367a2.332,2.332,0,0,0-3.293,0,.874.874,0,0,1-1.222,0L111.01,94.91a.863.863,0,0,1,0-1.222,2.328,2.328,0,0,0,0-3.293l-1.157-1.157a2.328,2.328,0,0,0-3.293,0,5.247,5.247,0,0,0,0,7.417l5.163,5.163a5.244,5.244,0,0,0,7.418,0,2.328,2.328,0,0,0,0-3.293Z" transform="translate(0 -51.739)" fill="#fff"/>
      <path id="Path_5445" data-name="Path 5445" d="M334.583,35a.593.593,0,1,0,0,1.187,7.078,7.078,0,0,1,7.07,7.07.593.593,0,1,0,1.187,0A8.266,8.266,0,0,0,334.583,35Z" transform="translate(-221.202)" fill="#fff"/>
      <path id="Path_5446" data-name="Path 5446" d="M338.568,130.6a.593.593,0,1,0,1.187,0,5.2,5.2,0,0,0-5.192-5.191.593.593,0,1,0,0,1.187A4.009,4.009,0,0,1,338.568,130.6Z" transform="translate(-221.183 -87.344)" fill="#fff"/>
    </g>
  </g>
</svg>
