<svg xmlns="http://www.w3.org/2000/svg" width="17.434" height="17.414" viewBox="0 0 17.434 17.414">
  <g id="noun_Search_875351" transform="translate(-14.975 -15.05)">
    <path id="Path_3803" data-name="Path 3803" d="M31.878,30.613,27.725,26.46a6.947,6.947,0,1,0-5.545,2.761,6.843,6.843,0,0,0,4.2-1.415l4.176,4.13a.929.929,0,0,0,.673.278.969.969,0,0,0,.673-.278A.946.946,0,0,0,31.878,30.613ZM22.2,27.341a5.081,5.081,0,1,1,3.6-8.677,4.959,4.959,0,0,1,1.485,3.6,5.093,5.093,0,0,1-1.485,3.6A5,5,0,0,1,22.2,27.341Z" transform="translate(0 0)" fill="#0c534e" stroke="#0c534e" stroke-width="0.5"/>
  </g>
</svg>
