<svg xmlns="http://www.w3.org/2000/svg" width="17.028" height="18.982" viewBox="0 0 17.028 18.982">
  <path id="Path_5448" data-name="Path 5448" d="M14-8.891l-.876-2.3H5.66L4.784-8.841a8.24,8.24,0,0,1-.876,1.859A1.393,1.393,0,0,1,2.718-6.5a1.744,1.744,0,0,1-1.24-.513A1.572,1.572,0,0,1,.94-8.177a2.6,2.6,0,0,1,.125-.776q.125-.4.413-1.114l4.7-11.92.482-1.233a6.236,6.236,0,0,1,.6-1.2,2.442,2.442,0,0,1,.839-.77,2.572,2.572,0,0,1,1.283-.294,2.6,2.6,0,0,1,1.3.294,2.491,2.491,0,0,1,.839.758,5.313,5.313,0,0,1,.538,1q.219.532.557,1.421l4.8,11.845A5.954,5.954,0,0,1,17.968-8.2a1.627,1.627,0,0,1-.532,1.171,1.749,1.749,0,0,1-1.283.532,1.664,1.664,0,0,1-.751-.157,1.539,1.539,0,0,1-.526-.426,3.917,3.917,0,0,1-.457-.826Q14.175-8.465,14-8.891Zm-7.362-5.1h5.484L9.354-21.562Z" transform="translate(-0.94 25.481)" fill="#fff"/>
</svg>
