<svg id="WhatsApp" xmlns="http://www.w3.org/2000/svg" xmlns:xlink="http://www.w3.org/1999/xlink" width="22.183" height="22.282" viewBox="0 0 22.183 22.282">
  <defs>
    <linearGradient id="linear-gradient" x1="0.49" y1="0.06" x2="0.495" y2="0.915" gradientUnits="objectBoundingBox">
      <stop offset="0" stop-color="#57d163"/>
      <stop offset="1" stop-color="#23b33a"/>
    </linearGradient>
  </defs>
  <path id="Path_5439" data-name="Path 5439" d="M19.816,32.211l.334.2A9.12,9.12,0,0,0,24.8,33.681h0A9.132,9.132,0,1,0,17.065,29.4l.217.345-.923,3.369Zm-6.1,3.516,1.559-5.692a10.989,10.989,0,1,1,9.522,5.5h0A10.983,10.983,0,0,1,19.546,34.2Zm0,0" transform="translate(-13.608 -13.445)" fill="#b3b3b3"/>
  <path id="Path_5440" data-name="Path 5440" d="M12.966,34.971l1.559-5.692a10.989,10.989,0,1,1,9.522,5.5h0a10.983,10.983,0,0,1-5.251-1.337Z" transform="translate(-12.966 -12.802)" fill="#fff"/>
  <path id="Path_5441" data-name="Path 5441" d="M35.143,25.227A9.135,9.135,0,0,0,27.4,39.216l.217.345L26.7,42.93l3.457-.906.334.2a9.121,9.121,0,0,0,4.649,1.273h0a9.134,9.134,0,0,0,0-18.268Z" transform="translate(-24.058 -23.371)" fill="rgba(0,0,0,0)"/>
  <path id="Path_5442" data-name="Path 5442" d="M35.143,25.227A9.135,9.135,0,0,0,27.4,39.216l.217.345L26.7,42.93l3.457-.906.334.2a9.121,9.121,0,0,0,4.649,1.273h0a9.134,9.134,0,0,0,0-18.268Z" transform="translate(-24.058 -23.371)" fill="url(#linear-gradient)"/>
  <path id="Path_5443" data-name="Path 5443" d="M52.611,52.865c-.206-.457-.422-.466-.618-.474l-.526-.006a1.008,1.008,0,0,0-.732.344,3.079,3.079,0,0,0-.961,2.29,5.342,5.342,0,0,0,1.121,2.84A11.267,11.267,0,0,0,55.585,62c2.319.915,2.791.733,3.295.687a2.772,2.772,0,0,0,1.853-1.305,2.3,2.3,0,0,0,.16-1.305c-.069-.115-.252-.183-.526-.321s-1.624-.8-1.876-.893-.435-.137-.618.138-.709.893-.869,1.076-.32.206-.6.069A7.5,7.5,0,0,1,54.2,58.784a8.285,8.285,0,0,1-1.528-1.9c-.16-.275-.017-.423.121-.56s.275-.321.412-.481a1.861,1.861,0,0,0,.274-.458.506.506,0,0,0-.023-.481c-.069-.137-.6-1.5-.846-2.038" transform="translate(-44.277 -46.472)" fill="#fff" fill-rule="evenodd"/>
</svg>
