<svg id="return" xmlns="http://www.w3.org/2000/svg" width="31.142" height="15.197" viewBox="0 0 31.142 15.197">
  <path id="Path_3740" data-name="Path 3740" d="M102.967,283.817H119.6a1.52,1.52,0,0,0,0-3.04H102.967C98.565,280.777,97.1,283.817,102.967,283.817Zm0,0" transform="translate(-99.098 -274.699)" fill="#fff"/>
  <path id="Path_3741" data-name="Path 3741" d="M1.52,229.915a1.519,1.519,0,0,0,.843-.255l9.118-6.079a1.519,1.519,0,0,0,0-2.529l-9.118-6.079A1.52,1.52,0,0,0,0,216.237V228.4a1.519,1.519,0,0,0,1.52,1.52Zm6.379-7.6-4.859,3.24v-6.48Zm0,0" transform="translate(18.984 -214.718)" fill="#fff"/>
</svg>
