<svg xmlns="http://www.w3.org/2000/svg" width="17.071" height="18" viewBox="0 0 17.071 18">
  <g id="Group_5648" data-name="Group 5648" transform="translate(-6514 -2975)">
    <path id="Path_5352" data-name="Path 5352" d="M5,8V19.381a1.9,1.9,0,0,0,1.9,1.9h9.484a1.9,1.9,0,0,0,1.9-1.9V8Zm5.69,9.484a.948.948,0,0,1-1.9,0v-5.69a.948.948,0,0,1,1.9,0Zm3.794,0a.948.948,0,0,1-1.9,0v-5.69a.948.948,0,0,1,1.9,0Z" transform="translate(6510.897 2971.722)" fill="#f2d4a3"/>
    <path id="Path_5353" data-name="Path 5353" d="M18.648,3.949H13.167a1.9,1.9,0,0,0-3.262,0H4.423a1.423,1.423,0,0,0,0,2.845H18.648a1.423,1.423,0,0,0,0-2.845Z" transform="translate(6511 2971.979)" fill="#e88600"/>
  </g>
</svg>
