<svg xmlns="http://www.w3.org/2000/svg" width="20.205" height="21.311" viewBox="0 0 20.205 21.311">
  <path id="noun-profile-male-5381883" d="M107.21,3.252a3.284,3.284,0,0,0-6.3-1.265,9.724,9.724,0,1,0,6.3,9.069,9.568,9.568,0,0,0-1.473-5.095,3.241,3.241,0,0,0,1.473-2.709ZM103.931,1.3a1.951,1.951,0,1,1,0,3.9,1.968,1.968,0,0,1-1.979-1.951A1.967,1.967,0,0,1,103.931,1.3ZM92.826,18.213a3.607,3.607,0,0,1,2.72-1.918,1.959,1.959,0,0,0,1.53,1.245,1.913,1.913,0,0,0,.278.019,1.976,1.976,0,0,0,1.3-.483,1.941,1.941,0,0,0,.534-.78,3.619,3.619,0,0,1,2.7,1.918,8.561,8.561,0,0,1-9.061,0Zm2.553-7.808h3.958V11.7a1.964,1.964,0,0,1-1.961,1.961H97.34A1.964,1.964,0,0,1,95.378,11.7v-1.29Zm1.961,4.552h.035a3.26,3.26,0,0,0,.646-.066v.716a.646.646,0,0,1-.223.486.679.679,0,0,1-.542.157.73.73,0,0,1-.563-.743v-.616a3.267,3.267,0,0,0,.647.066Zm8.57-3.9a8.394,8.394,0,0,1-2.961,6.383,4.9,4.9,0,0,0-3.626-2.434V14.3a3.248,3.248,0,0,0,1.263-2.092,1.286,1.286,0,0,0,.051-2.271V6.5a.65.65,0,0,0-1.015-.538l-.8.538h-2.8a1.938,1.938,0,0,0-1.943,1.93v1.5a1.286,1.286,0,0,0,.051,2.272A3.249,3.249,0,0,0,95.393,14.3v.709a4.913,4.913,0,0,0-3.624,2.435,8.39,8.39,0,0,1-2.963-6.385,8.522,8.522,0,0,1,11.848-7.779,3.268,3.268,0,0,0,3.277,3.226,3.3,3.3,0,0,0,.577-.058,8.3,8.3,0,0,1,1.4,4.61Z" transform="translate(-87.255 0.25)" fill="#13908b" stroke="#13908b" stroke-width="0.5"/>
</svg>
