<svg xmlns="http://www.w3.org/2000/svg" width="23.556" height="19.29" viewBox="0 0 23.556 19.29">
  <g id="Namaste_hand" data-name="Namaste hand" transform="translate(2.145 -0.168)">
    <path id="Path_4797" data-name="Path 4797" d="M8.429,8.235a.8.8,0,0,0-.8.8v2.408a.4.4,0,1,1-.8,0V9.038a1.606,1.606,0,0,1,1.69-1.606c.04-.04,0,.052.606-5.427A.9.9,0,0,0,7.4,1.564L5.174,6.971c-.478,1.136-.309,1.606,0,6.334a.8.8,0,0,1-.466.783L0,16.263l4.415,3.211,3.95-3.291c1.12-.931.867-1.549.867-7.145A.8.8,0,0,0,8.429,8.235Z" transform="translate(0 -0.017)" fill="#fff"/>
    <path id="Path_4798" data-name="Path 4798" d="M29.5,14.071a.8.8,0,0,1-.466-.783l.305-4.54c.08-1.232-.14-1.413-2.521-7.2a.9.9,0,0,0-1.726.337c0,.04.57,5.491.61,5.531a1.606,1.606,0,0,1,1.69,1.6V11.43a.4.4,0,1,1-.8,0V9.021a.8.8,0,0,0-1.369-.566c-.329.317-.237.153-.237,5.86a2.408,2.408,0,0,0,.867,1.85l3.95,3.292,4.415-3.211Z" transform="translate(-14.947 0)" fill="#fff"/>
    <path id="Path_4799" data-name="Path 4799" d="M23.651,18.7H21.908a.9.9,0,0,0,0,1.8h1.743a.9.9,0,0,0,0-1.8Zm-2.418,4.538a.9.9,0,1,0-1.272,1.274l1.226,1.233a.9.9,0,0,0,1.272-1.272ZM20.6,16.216a.9.9,0,0,0,.637-.264l1.231-1.231a.9.9,0,1,0-1.279-1.272L19.961,14.68a.9.9,0,0,0,.637,1.536ZM4.537,19.6a.9.9,0,0,0-.9-.9H1.9a.9.9,0,0,0,0,1.8H3.64a.9.9,0,0,0,.9-.9Zm.413-3.38a.9.9,0,0,0,.637-1.536L4.361,13.45A.9.9,0,0,0,3.09,14.721l1.231,1.231A.9.9,0,0,0,4.95,16.216Zm-.635,7.019L3.083,24.468a.9.9,0,0,0,1.279,1.274l1.226-1.233a.9.9,0,1,0-1.272-1.274Z" transform="translate(-3.14 -13.016)" fill="#0c534e"/>
  </g>
</svg>
