<svg xmlns="http://www.w3.org/2000/svg" width="23.256" height="11.349" viewBox="0 0 23.256 11.349">
  <g id="return" transform="translate(0 -214.718)">
    <path id="Path_3740" data-name="Path 3740" d="M112.654,283.047H100.233a1.135,1.135,0,0,1,0-2.27h12.422C115.941,280.777,117.034,283.047,112.654,283.047Zm0,0" transform="translate(-92.288 -61.52)" fill="#0c534e"/>
    <path id="Path_3741" data-name="Path 3741" d="M7.944,226.066a1.134,1.134,0,0,1-.63-.191l-6.809-4.54a1.135,1.135,0,0,1,0-1.888l6.809-4.54a1.135,1.135,0,0,1,1.765.944v9.079a1.134,1.134,0,0,1-1.135,1.135Zm-4.764-5.675,3.629,2.419v-4.839Zm0,0" transform="translate(0 0)" fill="#0c534e"/>
  </g>
</svg>
