<svg xmlns="http://www.w3.org/2000/svg" width="32.17" height="27.574" viewBox="0 0 32.17 27.574">
  <g id="Layer_31" data-name="Layer 31" transform="translate(-43.836 -87.671)">
    <path id="Path_4804" data-name="Path 4804" d="M267.609,306.849a4.6,4.6,0,1,0,4.6,4.6A4.6,4.6,0,0,0,267.609,306.849Zm0,0a4.6,4.6,0,1,0,4.6,4.6A4.6,4.6,0,0,0,267.609,306.849Zm0,0a4.6,4.6,0,1,0,4.6,4.6A4.6,4.6,0,0,0,267.609,306.849Z" transform="translate(-207.689 -207.689)" fill="#fff"/>
    <path id="Path_4805" data-name="Path 4805" d="M74.857,92.267H66.814V88.82a1.149,1.149,0,0,0-1.149-1.149H54.176a1.149,1.149,0,0,0-1.149,1.149v3.447h-2.3V91.118a1.149,1.149,0,0,0-1.149-1.149h-2.3a1.149,1.149,0,0,0-1.149,1.149v1.149H44.985a1.149,1.149,0,0,0-1.149,1.149V114.1a1.149,1.149,0,0,0,1.149,1.149H74.857a1.149,1.149,0,0,0,1.149-1.149V93.416A1.149,1.149,0,0,0,74.857,92.267ZM59.921,110.65a6.894,6.894,0,1,1,6.894-6.894A6.894,6.894,0,0,1,59.921,110.65ZM71.41,98.012H67.963a1.149,1.149,0,0,1,0-2.3H71.41a1.149,1.149,0,0,1,0,2.3Z" fill="#fff"/>
  </g>
</svg>
