<svg xmlns="http://www.w3.org/2000/svg" width="17.236" height="17.236" viewBox="0 0 17.236 17.236">
  <g id="Button_dial_keyboard_keypad_mobile_number_phone" data-name="Button, dial, keyboard, keypad, mobile, number, phone" transform="translate(-15.24 -15.24)">
    <path id="Path_4695" data-name="Path 4695" d="M43.066,40.78a2.286,2.286,0,1,0,2.286,2.286,2.286,2.286,0,0,0-2.286-2.286Z" transform="translate(-19.208 -19.208)" fill="#729895"/>
    <path id="Path_4696" data-name="Path 4696" d="M43.066,15.25a2.286,2.286,0,1,0,2.286,2.286,2.286,2.286,0,0,0-2.286-2.286Z" transform="translate(-19.208 -0.008)" fill="#729895"/>
    <path id="Path_4697" data-name="Path 4697" d="M43.066,66.32A2.286,2.286,0,1,0,45.352,68.6,2.286,2.286,0,0,0,43.066,66.32Z" transform="translate(-19.208 -38.416)" fill="#729895"/>
    <path id="Path_4698" data-name="Path 4698" d="M17.528,40.78a2.286,2.286,0,1,0,2.283,2.286A2.286,2.286,0,0,0,17.528,40.78Z" transform="translate(0 -19.208)" fill="#729895"/>
    <path id="Path_4699" data-name="Path 4699" d="M17.528,15.25a2.286,2.286,0,1,0,2.283,2.286,2.286,2.286,0,0,0-2.283-2.286Z" transform="translate(0 -0.008)" fill="#729895"/>
    <path id="Path_4700" data-name="Path 4700" d="M17.528,66.32A2.286,2.286,0,1,0,19.812,68.6,2.286,2.286,0,0,0,17.528,66.32Z" transform="translate(0 -38.416)" fill="#729895"/>
    <path id="Path_4701" data-name="Path 4701" d="M68.6,40.78a2.286,2.286,0,1,0,2.286,2.286A2.286,2.286,0,0,0,68.6,40.78Z" transform="translate(-38.408 -19.208)" fill="#729895"/>
    <path id="Path_4702" data-name="Path 4702" d="M68.6,19.812a2.286,2.286,0,1,0-2.283-2.283A2.286,2.286,0,0,0,68.6,19.812Z" transform="translate(-38.416 0)" fill="#729895"/>
    <path id="Path_4703" data-name="Path 4703" d="M68.6,66.32A2.286,2.286,0,1,0,70.882,68.6,2.286,2.286,0,0,0,68.6,66.32Z" transform="translate(-38.408 -38.416)" fill="#729895"/>
  </g>
</svg>
