<svg xmlns="http://www.w3.org/2000/svg" width="20.141" height="21.311" viewBox="0 0 20.141 21.311">
  <path id="noun-profile-female-5381876" d="M107.144,3.252a3.273,3.273,0,0,0-6.278-1.273,9.733,9.733,0,1,0,6.279,9.078,9.6,9.6,0,0,0-1.459-5.1,3.245,3.245,0,0,0,1.459-2.7ZM103.875,1.3a1.951,1.951,0,1,1-1.97,1.951A1.962,1.962,0,0,1,103.875,1.3ZM92.811,18.214A3.589,3.589,0,0,1,95.518,16.3a1.957,1.957,0,0,0,1.526,1.245,1.907,1.907,0,0,0,.278.019,1.968,1.968,0,0,0,1.292-.481,1.939,1.939,0,0,0,.535-.782,3.6,3.6,0,0,1,2.687,1.918,8.5,8.5,0,0,1-9.025,0ZM95.354,11.7V10.406h3.94V11.7a1.959,1.959,0,0,1-1.957,1.957h-.026A1.959,1.959,0,0,1,95.355,11.7Zm1.31,3.192a3.265,3.265,0,0,0,.646.066h.026a3.218,3.218,0,0,0,.646-.066v.716a.647.647,0,0,1-.224.488.676.676,0,0,1-.536.155.729.729,0,0,1-.559-.743v-.616Zm9.179-3.836a8.4,8.4,0,0,1-2.948,6.381A4.865,4.865,0,0,0,101.23,15.7a.581.581,0,0,0,.019-.095V9.988a3.93,3.93,0,1,0-7.85,0v5.621a.631.631,0,0,0,.019.1,4.913,4.913,0,0,0-1.665,1.733A8.4,8.4,0,0,1,88.8,11.056a8.485,8.485,0,0,1,11.8-7.78,3.231,3.231,0,0,0,3.842,3.169,8.318,8.318,0,0,1,1.4,4.61Z" transform="translate(-87.254 0.25)" fill="#f06363" stroke="#f06363" stroke-width="0.5"/>
</svg>
