<svg xmlns="http://www.w3.org/2000/svg" width="15.285" height="18.882" viewBox="0 0 15.285 18.882">
  <path id="Path_5423" data-name="Path 5423" d="M159.314,35a7.646,7.646,0,0,1,7.642,7.642A11.4,11.4,0,0,1,164.485,49a26.826,26.826,0,0,1-4.324,4.585h0a1.35,1.35,0,0,1-1.692,0h0A26.818,26.818,0,0,1,154.144,49a11.4,11.4,0,0,1-2.472-6.356A7.646,7.646,0,0,1,159.314,35Zm0,4.5a3.147,3.147,0,1,0,3.147,3.147A3.149,3.149,0,0,0,159.314,39.5Z" transform="translate(-151.672 -35)" fill="#729895" fill-rule="evenodd"/>
</svg>
