<svg xmlns="http://www.w3.org/2000/svg" width="19.056" height="16.991" viewBox="0 0 19.056 16.991">
  <g id="Group_4656" data-name="Group 4656" transform="translate(-3696.247 -1384.75)">
    <path id="Path_4706" data-name="Path 4706" d="M60.118,30a.619.619,0,0,0-.618.618V45.873a.618.618,0,1,0,1.237,0V30.618A.619.619,0,0,0,60.118,30Z" transform="translate(3654.315 1355)" fill="#729895" stroke="#729896" stroke-width="0.5"/>
    <path id="Path_4707" data-name="Path 4707" d="M44.929,42.782a.618.618,0,0,0-.85-.207l-1.7,1.036V41.618a.618.618,0,1,0-1.237,0v1.992l-1.7-1.036a.618.618,0,1,0-.643,1.057l1.773,1.079L38.8,45.789a.618.618,0,1,0,.643,1.057l1.7-1.036V47.8a.618.618,0,1,0,1.237,0V45.81l1.7,1.036a.619.619,0,1,0,.643-1.057l-1.773-1.079,1.773-1.079A.619.619,0,0,0,44.929,42.782Z" transform="translate(3666.658 1348.535)" fill="#729895" stroke="#729896" stroke-width="0.5"/>
    <path id="Path_4708" data-name="Path 4708" d="M23.929,42.782a.618.618,0,0,0-.85-.207l-1.7,1.036V41.618a.618.618,0,0,0-1.237,0v1.992l-1.7-1.036a.618.618,0,0,0-.643,1.057l1.773,1.079L17.8,45.789a.618.618,0,0,0,.643,1.057l1.7-1.036V47.8a.618.618,0,0,0,1.237,0V45.81l1.7,1.036a.619.619,0,1,0,.643-1.057l-1.773-1.079,1.773-1.079A.619.619,0,0,0,23.929,42.782Z" transform="translate(3679 1348.535)" fill="#729895" stroke="#729896" stroke-width="0.5"/>
  </g>
</svg>
